<?xml version="1.0" encoding="UTF-8"?>
<svg width="312px" height="233px" viewBox="0 0 312 233" version="1.1" xmlns="http://www.w3.org/2000/svg" xmlns:xlink="http://www.w3.org/1999/xlink">
    <title>imagemark</title>
    <g id="页面-1" stroke="none" stroke-width="1" fill="none" fill-rule="evenodd">
        <g id="画板" transform="translate(-773.000000, -1189.000000)">
            <g id="imagemark" transform="translate(773.000000, 1189.965017)">
                <g id="编组-3" transform="translate(247.527665, 64.437346) rotate(-45.000000) translate(-247.527665, -64.437346) translate(201.943073, 18.893770)">
                    <path d="M45.584592,91.087152 C70.7602669,91.087152 91.1691839,70.6965985 91.1691839,45.543576 C91.1691839,20.3905535 70.7602669,9.09494702e-13 45.584592,9.09494702e-13 C20.408917,9.09494702e-13 0,20.3905535 0,45.543576 C0,70.6965985 20.408917,91.087152 45.584592,91.087152 Z" id="椭圆形" fill="#FFFFFF"></path>
                    <path d="M45.584592,0 C51.1108774,0 56.4074806,0.982501892 61.3089566,2.78220968 L61.3089566,88.3049423 C56.4074806,90.1046501 51.1108774,91.087152 45.584592,91.087152 C20.408917,91.087152 0,70.6965985 0,45.543576 C0,20.3905535 20.408917,0 45.584592,0 Z" id="形状结合" fill="#FDA56A"></path>
                </g>
                <g id="编组-2" transform="translate(0.000000, 85.406978)">
                    <path d="M146.759877,6.92779167e-14 L293.52,146.628 L0,146.628 L146.759877,6.92779167e-14 Z M171.950205,59.2545759 L84.498268,146.627576 L259.401268,146.627576 L171.950205,59.2545759 Z" id="形状结合" fill="#FFFFFF"></path>
                    <path d="M119.424925,69.3308897 L140.644901,90.5318897 L84.498268,146.627576 L196.789901,146.62689 L196.790901,146.62789 L42.0589011,146.62789 L119.424925,69.3308897 Z" id="形状结合" fill="#F86810"></path>
                    <path d="M146.759877,1.00736086e-12 L293.520287,146.628 L141.240287,146.628 L141.239967,146.627 L259.401268,146.627576 L171.950205,59.2545759 L141.239967,89.937 L141.240287,5.514 L146.759877,1.00736086e-12 Z" id="形状结合" fill="#CECFCD"></path>
                    <path d="M171.950205,93.6899626 L224.934678,146.627963 L118.964678,146.627963 L171.950205,93.6899626 Z" id="形状结合" fill="#4063DB"></path>
                </g>
                <path d="M205.169898,213.287082 C215.301572,213.287082 223.514917,205.081127 223.514917,194.958569 C223.514917,184.836012 215.301572,176.630057 205.169898,176.630057 C195.038224,176.630057 186.824879,184.836012 186.824879,194.958569 C186.824879,205.081127 195.038224,213.287082 205.169898,213.287082 Z" id="椭圆形" fill="#F86810"></path>
            </g>
        </g>
    </g>
</svg>